<svg xmlns="http://www.w3.org/2000/svg" viewBox="0 0 200 200" overflow="hidden">
  <defs>
    <radialGradient id="s" cx="100" cy="114" r="41" gradientUnits="userSpaceOnUse" class="svga-on-canvas-facehighlight-gradient-single-0">
      <stop stop-opacity=".5" stop-color="#ffe4d6" offset="0"/>
      <stop stop-opacity="0" stop-color="#f0c7b1" offset=".9"/>
    </radialGradient>
    <radialGradient id="t" cx="100" cy="54" r="37" gradientUnits="userSpaceOnUse" class="svga-on-canvas-facehighlight-gradient-single-1">
      <stop stop-opacity=".5" stop-color="#ffe4d6" offset="0"/>
      <stop stop-opacity="0" stop-color="#f0c7b1" offset=".9"/>
    </radialGradient>
    <radialGradient id="c" cx="125.861" cy="84.497" r="10.213" gradientTransform="matrix(-1 0 0 1 200 0)" gradientUnits="userSpaceOnUse" class="svga-on-canvas-eyesback-gradient-left-0">
      <stop stop-color="#fff" offset="0"/>
      <stop stop-color="#fdfefe" offset=".544"/>
      <stop stop-color="#f6f8f9" offset=".74"/>
      <stop stop-color="#eaeff2" offset=".879"/>
      <stop stop-color="#d9e3e8" offset=".992"/>
      <stop stop-color="#d8e2e7" offset="1"/>
    </radialGradient>
    <radialGradient id="k" cx="125.861" cy="84.497" r="10.213" gradientUnits="userSpaceOnUse" class="svga-on-canvas-eyesback-gradient-right-0">
      <stop stop-color="#fff" offset="0"/>
      <stop stop-color="#fdfefe" offset=".544"/>
      <stop stop-color="#f6f8f9" offset=".74"/>
      <stop stop-color="#eaeff2" offset=".879"/>
      <stop stop-color="#d9e3e8" offset=".992"/>
      <stop stop-color="#d8e2e7" offset="1"/>
    </radialGradient>
    <radialGradient id="i" cx="123.755" cy="83.738" fx="136.189" fy="83.773" r="17.684" gradientTransform="matrix(.9998 .0208 .0166 -.7998 -48.877 148.14)" gradientUnits="userSpaceOnUse" class="svga-on-canvas-eyesfront-gradient-left-3">
      <stop stop-color="#e1ac8f" offset="0"/>
      <stop stop-opacity=".3" stop-color="#e1ac8f" offset=".7"/>
      <stop stop-opacity="0" stop-color="#f0c7b1" offset="1"/>
    </radialGradient>
    <radialGradient id="j" cx="122.636" cy="100.958" r="25.824" gradientTransform="matrix(-.8746 -.4848 -.3636 .656 221.333 94.188)" gradientUnits="userSpaceOnUse" class="svga-on-canvas-eyesfront-gradient-left-4">
      <stop stop-opacity="0" offset=".94"/>
      <stop stop-opacity=".2" offset="1"/>
    </radialGradient>
    <radialGradient id="q" cx="123.755" cy="83.738" fx="136.19" fy="83.773" r="17.685" gradientTransform="matrix(-.9998 .0208 -.0166 -.7998 248.877 148.14)" gradientUnits="userSpaceOnUse" class="svga-on-canvas-eyesfront-gradient-right-3">
      <stop stop-color="#e1ac8f" offset="0"/>
      <stop stop-opacity=".3" stop-color="#e1ac8f" offset=".7"/>
      <stop stop-opacity="0" stop-color="#f0c7b1" offset="1"/>
    </radialGradient>
    <radialGradient id="r" cx="122.636" cy="100.958" r="25.824" gradientTransform="matrix(.8746 -.4848 .3636 .656 -21.333 94.188)" gradientUnits="userSpaceOnUse" class="svga-on-canvas-eyesfront-gradient-right-4">
      <stop stop-opacity="0" offset=".94"/>
      <stop stop-opacity=".2" offset="1"/>
    </radialGradient>
    <radialGradient id="d" cx="-568.659" cy="-521.042" r="59.751" gradientTransform="matrix(.096 -.0248 .0245 .0961 141.281 119.99)" gradientUnits="userSpaceOnUse" class="svga-on-canvas-eyesiris-gradient-left-1">
      <stop stop-color="#fff" offset="0"/>
      <stop stop-opacity="0" stop-color="#fff" offset="1"/>
    </radialGradient>
    <radialGradient id="e" cx="-582.838" cy="-519.099" r="59.745" gradientTransform="matrix(.0991 .00089 -.0011 .0991 131.113 135.986)" gradientUnits="userSpaceOnUse" class="svga-on-canvas-eyesiris-gradient-left-2">
      <stop stop-color="#fff" offset="0"/>
      <stop stop-opacity="0" stop-color="#fff" offset="1"/>
    </radialGradient>
    <radialGradient id="l" cx="-568.654" cy="-521.042" r="59.752" gradientTransform="matrix(.096 -.0248 .0245 .0961 193.28 119.99)" gradientUnits="userSpaceOnUse" class="svga-on-canvas-eyesiris-gradient-right-1">
      <stop stop-color="#fff" offset="0"/>
      <stop stop-opacity="0" stop-color="#fff" offset="1"/>
    </radialGradient>
    <radialGradient id="m" cx="-582.833" cy="-519.102" r="59.747" gradientTransform="matrix(.0991 .00089 -.0011 .0991 183.113 135.986)" gradientUnits="userSpaceOnUse" class="svga-on-canvas-eyesiris-gradient-right-2">
      <stop stop-color="#fff" offset="0"/>
      <stop stop-opacity="0" stop-color="#fff" offset="1"/>
    </radialGradient>
    <linearGradient id="b" x1="100" y1="142" x2="100" y2="139" gradientUnits="userSpaceOnUse" class="svga-on-canvas-mouth-gradient-single-0">
      <stop stop-color="#e8b9a0" offset=".1"/>
      <stop stop-color="#e1ac8f" offset="1"/>
    </linearGradient>
    <linearGradient id="f" x1="122.67" y1="88.268" x2="123.606" y2="87.152" gradientTransform="translate(-52)" gradientUnits="userSpaceOnUse" class="svga-on-canvas-eyesiris-gradient-left-5">
      <stop stop-color="#fff" offset="0"/>
      <stop stop-opacity="0" stop-color="#fff" offset="1"/>
    </linearGradient>
    <linearGradient id="g" x1="127.212" y1="82.296" x2="126.463" y2="83.189" gradientTransform="translate(-52)" gradientUnits="userSpaceOnUse" class="svga-on-canvas-eyesiris-gradient-left-6">
      <stop stop-color="#fff" offset="0"/>
      <stop stop-opacity="0" stop-color="#fff" offset="1"/>
    </linearGradient>
    <linearGradient id="h" x1="129.636" y1="79.822" x2="127.91" y2="81.879" gradientTransform="translate(-52)" gradientUnits="userSpaceOnUse" class="svga-on-canvas-eyesiris-gradient-left-7">
      <stop stop-color="#fff" offset="0"/>
      <stop stop-opacity="0" stop-color="#fff" offset="1"/>
    </linearGradient>
    <linearGradient id="n" x1="122.67" y1="88.268" x2="123.606" y2="87.152" gradientUnits="userSpaceOnUse" class="svga-on-canvas-eyesiris-gradient-right-5">
      <stop stop-color="#fff" offset="0"/>
      <stop stop-opacity="0" stop-color="#fff" offset="1"/>
    </linearGradient>
    <linearGradient id="o" x1="127.212" y1="82.296" x2="126.463" y2="83.189" gradientUnits="userSpaceOnUse" class="svga-on-canvas-eyesiris-gradient-right-6">
      <stop stop-color="#fff" offset="0"/>
      <stop stop-opacity="0" stop-color="#fff" offset="1"/>
    </linearGradient>
    <linearGradient id="p" x1="129.636" y1="79.822" x2="127.91" y2="81.879" gradientUnits="userSpaceOnUse" class="svga-on-canvas-eyesiris-gradient-right-7">
      <stop stop-color="#fff" offset="0"/>
      <stop stop-opacity="0" stop-color="#fff" offset="1"/>
    </linearGradient>
    <linearGradient id="a" x1="100" y1="171" x2="100" y2="128" gradientUnits="userSpaceOnUse" class="svga-on-canvas-chinshadow-gradient-single-0">
      <stop stop-opacity=".8" stop-color="#e1ac8f" offset="0"/>
      <stop stop-color="#c27b55" offset=".7"/>
    </linearGradient>
  </defs>
  <path d="M100.404 101.677h-.85v-.85h.85v.85z" fill="#3b3128"/>
  <path d="M181.084 186.063c-1.867-4.034-6.966-10.012-12.631-11.664-7.003-2.042-22.812-4.512-28.673-5.884-4.7-1.102-14.163-9.6-17.48-12.453-.595-.51-1.082-1.563-1.094-2.346-.118-9.234 3.566-33.765 3.566-33.765H75.187s3.684 24.53 3.564 33.765c-.009.783-.499 1.836-1.092 2.346-3.317 2.853-12.78 11.351-17.48 12.453-5.862 1.372-21.67 3.926-28.672 5.968-5.667 1.651-10.765 7.545-12.631 11.579-3.152 6.807-3.897 19.125-3.897 29.75h170c0-10.624-.745-22.942-3.895-29.75z" fill="#f0c7b1"/>
  <path d="M150.262 172.7c20.69 3.012 29.398 7.403 32.125 43.114h2.592c0-10.625-.745-22.943-3.895-29.75-1.867-4.034-6.966-10.012-12.631-11.664-7.003-2.042-22.812-4.512-28.673-5.884-4.7-1.102-15.506-10.26-18.397-13.898 2.856 3.998 10.872 13.264 17.896 15.691 3.36 1.161 6.158 1.69 10.983 2.392zM60.68 170.31c7.024-2.426 15.04-11.693 17.896-15.691-2.89 3.638-13.697 12.796-18.396 13.898-5.862 1.372-21.67 3.926-28.673 5.968-5.666 1.65-10.765 7.545-12.631 11.579-3.15 6.807-3.896 19.125-3.896 29.75h2.593c2.71-35.483 11.453-40.106 32.125-43.113 4.823-.701 7.622-1.23 10.982-2.391z" fill="#ffe4d6"/>
  <path d="M96.278 184.229s-4.313-1.368-6.02-2.023c-8.882-3.407-37.736-5.616-37.736-5.616s30.391 1.207 37.097 2.363c-.389-4.052-2.564-17.004-2.564-17.004s4.377 14.293 5.448 17.899c.573 1.927 3.775 4.38 3.775 4.38zm9.18-1.141c-.076.062-.163.143-.257.228.096-.073.183-.148.256-.228zm-9.18 1.14s2.46 2.544 3.695 2.576c1.624.043 4.104-2.464 5.229-3.488-1.076.813-3.535 1.182-4.514 1.22-1.13.044-4.41-.307-4.41-.307zm17.866-6.39c-1.314.21-3.728.67-3.728.67l1.943-12.656c-.549 2.61-3.802 13.779-6.902 17.236 1.624-1.374 5.235-2.032 7.076-2.299 8.7-1.26 8.697-1.26 34.903-4.199 0 0-24.71-.131-33.292 1.247z" fill="#e1ac8f"/>
  <path d="M181.084 186.063c-1.867-4.034-6.966-10.012-12.631-11.664-7.003-2.042-22.812-4.512-28.673-5.884-4.7-1.102-14.163-9.6-17.48-12.453-.595-.51-1.082-1.563-1.094-2.346-.118-9.234 3.566-33.765 3.566-33.765H75.187s3.684 24.53 3.564 33.765c-.009.783-.499 1.836-1.092 2.346-3.317 2.853-12.78 11.351-17.48 12.453-5.862 1.372-21.67 3.926-28.672 5.968-5.667 1.651-10.765 7.545-12.631 11.579-3.152 6.807-3.897 19.125-3.897 29.75h170c0-10.624-.745-22.942-3.895-29.75z" fill="none" stroke="#c27b55" stroke-width="1.275"/>
  <g>
    <path d="M109.536 170.861c4.446-1.662 9.623-5.664 14.692-10.57.134-7.874 1.927-22.141 3.129-30.907-15.727-1.816-38.988-1.81-54.712.013 1.201 8.766 2.992 23.017 3.125 30.887 5.071 4.909 10.251 8.915 14.699 10.578 4.473 1.672 14.594 1.672 19.067-.001z" fill="url(#a)" transform="matrix(.85 0 0 .85 14.98 16.252)"/>
  </g>
  <g>
    <path d="M110.014 216.756c-16.264 0-35.236-.063-57.998-.194l-20.127-.11c-12.153-.065-12.87-.079-14.354-.079l-4.164.006c-3.885-35.594 12.249-44.94 37.198-48.202 6.62-.932 13.131-2.632 18.24-5.926 13.878 18.907 55.09 14.928 62.137-.535 1.182.45 2.159 1.033 3.38 1.474 3.967 2.918 9.412 4.96 14.985 5.27 22.106 1.224 37.756 11.046 37.448 46.443.003.14.004 1-.01 1.267-10.637 0-14.626.103-22.98.223-11.331.161-25.434.363-53.744.363h-.01z" fill="#39557e"/>
    <path d="M185.876 215.696c-.349-6.278-3.454-23.85-8.806-31.91-10.61-15.984-35.921-10.375-41.762-16.74-4.238 8.636-21.229 14.106-26.855 14.91 16.304-5.406 23.151-9.315 25.857-18.59 5.444 7.08 34.913 1.676 46.51 20.682 3.395 5.564 6.624 23.278 5.056 31.648zm-123.457-48.46c1.153-.268 1.729-1.062 2.873-1.372l-1.212-1.608c-7.691 5.994-36.472 2.248-46.34 20.43-3.11 5.73-5.209 19.37-3.564 30.974.457-7.127.68-22.367 6.03-30.428 9.626-14.501 27.179-10.67 40.477-16.81 5.935 7.31 15.205 10.905 24.636 12.391-11.833-3.086-18.617-8.297-22.9-13.578z" fill="#4e688d"/>
    <path d="M129.993 163.509c-4.702 9.787-40.248 21.185-60.29.747-1.247.529-4.975 1.795-4.975 1.795 14.6 19.878 57.384 20.004 68.773-.097-.05-.02-2.35-1.857-3.508-2.445z" fill="#27446f"/>
    <path d="M130.902 161.603c-8 15.999-49.637 18.263-62.06.538-4.536 1.34-8.899 4.2-13.29 4.914-26.283 3.914-45.712 5.881-42.273 49.416 8.45 0-5.619-.055 38.736.183 105.051.603 101.627-.392 134.815-.392.024-.12.012-1.235.018-1.357 1.781-47.97-26.225-45.138-45.152-48.446-2.673-.61-5.157-2.357-7.34-3.353-1.206-.552-2.231-1.047-3.454-1.503zm-62.36 1.074c11.027 19.883 54.585 15.894 62.995.086 1.02.428 1.281.598 2.463 1.017-8.71 18.266-51.8 24.087-69.425.989.124-.035 2.723-1.626 3.966-2.092zm-54.28 53.136c-2.059-22.466 1.527-40.837 27.862-45.343 8.735-1.612 14.073-1.668 21.576-4.925 14.249 23.294 61.284 19.684 71.059-1.11 1.404 1.198 3.593 2.576 6.294 3.218 15.383 3.654 46.612-.76 44.963 48.159-45.948-.597-84.035-1.992-171.755 0z" fill="#0c2850"/>
  </g>
  <g>
    <path d="M55.115 85.53c-.822-2.113-6.87-5.1-9.529-4.629-3.007.533-4.112 3.703-3.714 6.051.938 5.514 3.397 7.836 4.502 12.143.932 3.632 2.918 5.722 3.9 7.266 1.207 1.894 2.32 6.24 2.57 6.874.393 1.003 1.787 3.436 4.251 3.312 2.833-.147 6.413-5.685 6.472-6.915.325-6.673-6.315-18.598-8.452-24.101z" fill="#f0c7b1" stroke="#c27b55" stroke-width="1.275"/>
    <path d="M55.74 108.018s.364-.91-.08-1.72c-.572-1.039-2.06-2.947-2.398-4.088-.277-.934-.136-2.929-.181-3.904-.08-1.726-1.269-2.907-1.638-3.898-2.477-6.624-5.774-10.73-7.65-11.582-1.388 3.39-.289 5.871 1.649 11.088-1.17-7.09-.046-9.307-.046-9.307s3.415 2.945 5.1 9.496c.306 1.182-.944 3.65-.705 4.85.3 1.506 3.556 4.42 4.468 5.64.712.949 1.48 3.425 1.48 3.425z" fill="#c27b55"/>
    <path d="M144.621 85.53c.822-2.113 6.87-5.1 9.53-4.629 3.008.533 4.112 3.703 3.713 6.051-.938 5.514-3.396 7.836-4.502 12.143-.932 3.632-2.92 5.722-3.9 7.266-1.207 1.894-2.32 6.24-2.57 6.874-.393 1.003-1.788 3.436-4.251 3.312-2.832-.147-6.414-5.685-6.471-6.915-.327-6.673 6.314-18.598 8.451-24.101z" fill="#f0c7b1" stroke="#c27b55" stroke-width="1.275"/>
    <path d="M143.996 108.018s-.365-.91.08-1.72c.572-1.039 2.06-2.947 2.397-4.088.276-.934.136-2.929.183-3.904.08-1.726 1.267-2.907 1.637-3.898 2.477-6.624 5.774-10.73 7.65-11.582 1.388 3.39.288 5.871-1.648 11.088 1.169-7.09.045-9.307.045-9.307s-3.415 2.945-5.102 9.496c-.303 1.182.945 3.65.706 4.85-.3 1.506-3.556 4.42-4.468 5.64-.711.949-1.48 3.425-1.48 3.425z" fill="#c27b55"/>
    <path d="M137.383 123.612c-5.84 9.219-19.612 25.78-29.298 29.378-3.803 1.414-12.405 1.414-16.207 0-9.687-3.6-23.457-20.16-29.297-29.378-5.74-9.059-12.624-41.044-12.634-41.09a52.348 52.348 0 01-1.703-13.207C48.199 40.574 71.324 17.245 99.9 17.2c28.578-.045 51.776 23.21 51.819 51.951a52.395 52.395 0 01-1.66 13.213c-.014.045-6.917 32.153-12.676 41.248z" fill="#f0c7b1"/>
    <path d="M108.608 17.933c22.945 5.358 40.033 26.047 39.995 50.752a52.38 52.38 0 01-1.704 13.206c-.01.046-6.27 32.032-12.01 41.09-5.841 9.217-18.988 25.15-28.674 28.75-1.255.466-4.273.937-6.234.937-1.961 0-4.978-.47-6.233-.937-9.687-3.6-22.834-19.533-28.674-28.75-5.74-9.058-12.001-41.044-12.01-41.09a52.342 52.342 0 01-1.704-13.206C51.322 43.98 68.408 23.29 91.354 17.933c-24.5 4.137-43.15 25.57-43.11 51.382.006 4.563.598 8.99 1.703 13.207.01.046 6.893 32.031 12.633 41.09 5.84 9.218 19.611 25.779 29.297 29.378 1.903.708 5.006 1.06 8.107 1.058 3.099 0 6.198-.35 8.1-1.058 9.687-3.6 23.457-20.16 29.298-29.378 5.74-9.059 12.624-41.044 12.632-41.09a52.348 52.348 0 001.704-13.207c.042-25.811-18.61-47.245-43.11-51.382z" fill="#e8b9a0"/>
    <path d="M137.383 123.612c-5.84 9.219-19.612 25.78-29.298 29.378-3.803 1.414-12.405 1.414-16.207 0-9.687-3.6-23.457-20.16-29.297-29.378-5.74-9.059-12.624-41.044-12.634-41.09a52.348 52.348 0 01-1.703-13.207C48.199 40.574 71.324 17.245 99.9 17.2c28.578-.045 51.776 23.21 51.819 51.951a52.395 52.395 0 01-1.66 13.213c-.014.045-6.917 32.153-12.676 41.248z" fill="none" stroke="#c27b55" stroke-width="1.275"/>
    <path d="M100.2 142.947c-2.832.144-3.644-2.753-3.644-2.753s3.931.565 6.991-.353c.001.001-.855 2.981-3.347 3.106z" fill="url(#b)" transform="matrix(.85 0 0 .85 14.98 16.252)"/>
    <path d="M100.394 135.898c-1.686.085-3.2-.066-3.295-.076a.212.212 0 01-.19-.231.22.22 0 01.232-.19c.035.002 3.482.344 5.727-.287.112-.027.23.035.263.148s-.034.23-.147.262c-.794.222-1.715.33-2.59.374z" fill="#c27b55"/>
    <path d="M85.104 127.006s10.652 1.263 14.21 1.274c3.87.01 16.39-1.274 16.39-1.274-3.62 3.004-7.601 5.892-16.621 5.949-8.069.052-10.136-2.878-13.979-5.95z" fill="#fff"/>
    <path d="M85.104 127.006s10.652 1.263 14.21 1.274c3.87.01 16.39-1.274 16.39-1.274-3.62 3.004-7.601 5.892-16.621 5.949-8.069.052-10.136-2.878-13.979-5.95z" fill="none" stroke="#c27b55" stroke-width=".6375"/>
    <path d="M60.942 83.152c-.216 2.76 1.682 6.038 12.492 6.964 9.553.818 13.62-.758 13.903-3.902s-3.407-6.987-12.88-7.482c-8.431-.44-13.269 1.273-13.515 4.42z" fill="url(#c)" transform="matrix(.85 0 0 .85 14.98 16.252)"/>
    <path d="M83.404 87.864a5.1 5.1 0 01-10.2 0 5.1 5.1 0 0110.2 0z" fill="#4d3623"/>
    <path d="M73.328 78.066l-.071.009.085.406c-.006-.137-.009-.277-.014-.415zm.013.414c.07 1.972.185 3.729.517 4.364.175-.696-.123-2.43-.517-4.364zm.518 4.365c-.043.167-.108.281-.208.319-.1.038-.226-.006-.368-.103.041.167.037.297-.036.378-.072.081-.201.101-.373.078.113.13.171.249.146.353-.027.104-.134.182-.293.242.159.063.266.141.291.245.025.104-.033.223-.145.352.17-.021.301.001.371.082.071.081.075.212.035.379.141-.097.265-.139.365-.1.101.038.166.152.206.32.081-.152.171-.249.28-.26.104-.014.216.059.329.188.001-.172.037-.299.127-.36.088-.061.219-.049.379.013-.078-.152-.105-.281-.055-.377.05-.095.173-.146.344-.166-.141-.099-.227-.2-.225-.308 0-.108.084-.209.227-.306-.17-.021-.291-.072-.342-.167-.049-.095-.022-.225.058-.377-.162.06-.292.072-.38.011-.089-.061-.125-.188-.125-.36-.112.128-.224.199-.33.185-.108-.014-.199-.108-.278-.261zm.607.075c.479-.535 1.021-2.209 1.57-4.104-.854 1.777-1.569 3.386-1.57 4.104zm1.569-4.104c.06-.122.121-.246.178-.37-.021-.007-.042-.017-.063-.026-.038.133-.076.266-.115.396zm-1.063 4.454c.672-.252 1.931-1.483 3.297-2.905-1.581 1.176-2.963 2.269-3.297 2.905zm3.297-2.905l.305-.225c-.014-.018-.03-.033-.042-.049-.087.09-.174.183-.263.274zm-3.015 3.449c.713.088 2.4-.417 4.272-1.041-1.948.308-3.678.633-4.272 1.041zm4.272-1.04l.337-.052-.014-.057-.323.109zm-4.273 1.653c.59.412 2.318.747 4.262 1.063-1.865-.633-3.548-1.148-4.262-1.063zm4.263 1.063c.095.033.191.067.285.098a.454.454 0 00.012-.05 18.227 18.227 0 01-.297-.048zm-4.551-.52c.333.637 1.708 1.738 3.282 2.924-1.359-1.43-2.609-2.668-3.282-2.924zm3.283 2.922l.179.189.03-.032c-.07-.052-.142-.105-.209-.157zm-3.788-2.575c-.003.719.703 2.331 1.547 4.113-.539-1.897-1.07-3.575-1.547-4.113zm1.547 4.114c.021.075.043.152.063.229l.039-.014a8.622 8.622 0 00-.102-.215zm-2.156-4.042c-.336.637-.461 2.39-.542 4.361.404-1.93.713-3.663.542-4.361zm-.542 4.361c-.017.075-.031.151-.047.228.014.003.025.003.039.005l.008-.233zm-.029-4.581c-.596.407-1.521 1.904-2.508 3.61 1.254-1.52 2.334-2.912 2.508-3.61zm-2.508 3.61l-.162.193.038.024.124-.217zm2.103-4.069c-.716.083-2.231.978-3.898 2.029 1.818-.762 3.418-1.491 3.898-2.029zm-3.899 2.031l-.263.11c.006.013.015.027.023.04.081-.049.161-.1.24-.15zm3.752-2.628c-.671-.257-2.429-.168-4.395-.011 1.964.168 3.722.265 4.395.011zm-4.395-.011a38.67 38.67 0 00-.323-.029c0 .019-.002.038 0 .056l.323-.027zm4.542-.583c-.473-.539-2.069-1.277-3.881-2.051 1.659 1.06 3.169 1.964 3.881 2.051zm-3.881-2.051a43.261 43.261 0 00-.315-.201.71.71 0 01-.029.055c.116.049.232.097.344.146zm4.29 1.593c-.169-.698-1.241-2.094-2.485-3.623.976 1.712 1.893 3.213 2.485 3.623zm-2.485-3.623c-.067-.115-.132-.232-.199-.349l-.056.039c.084.103.172.207.255.31z" fill="url(#d)" opacity=".7" transform="matrix(.85 0 0 .85 15.404 16.464)"/>
    <path d="M74.886 78.086l-.07-.01-.024.414c.03-.134.063-.27.094-.404zm-.095.403c-.442 1.922-.787 3.649-.629 4.35.349-.628.509-2.38.629-4.35zm-.63 4.35c-.084.15-.176.243-.283.254-.106.01-.216-.064-.327-.195-.004.171-.042.297-.133.356-.09.059-.221.045-.38-.021.076.155.101.285.049.378-.053.094-.176.142-.345.158.137.101.22.204.217.312-.002.107-.089.207-.231.302.169.024.29.079.337.174.048.096.018.225-.064.375.161-.057.292-.065.379-.002.087.063.12.19.116.363.117-.125.229-.196.337-.179.105.014.194.113.27.268.045-.167.113-.279.216-.315.101-.036.225.01.363.111-.036-.167-.029-.299.044-.378.073-.079.205-.096.376-.072-.111-.132-.168-.251-.138-.355.028-.104.136-.18.299-.237-.16-.064-.263-.145-.288-.25-.023-.105.037-.223.154-.349-.172.016-.301-.006-.37-.088-.07-.082-.072-.214-.028-.379-.142.094-.268.134-.367.093-.103-.041-.165-.156-.203-.324zm.568.231c.601-.394 1.557-1.871 2.578-3.558-1.285 1.495-2.391 2.863-2.578 3.558zm2.578-3.559c.089-.102.18-.206.268-.311-.019-.013-.036-.028-.055-.042-.071.119-.142.238-.213.353zm-2.18 4.027c.715-.07 2.25-.934 3.937-1.953-1.833.727-3.45 1.425-3.937 1.953zm3.936-1.954l.354-.138c-.01-.021-.021-.04-.028-.059-.108.066-.216.133-.326.197zm-3.804 2.553c.666.27 2.426.218 4.395.101-1.961-.208-3.716-.342-4.395-.101zm4.395.1l.339.037.002-.058-.341.021zm-4.554.492c.462.551 2.046 1.321 3.842 2.129-1.639-1.095-3.131-2.027-3.842-2.129zm3.841 2.129c.083.057.167.114.25.168a1.01 1.01 0 00.025-.045c-.09-.039-.184-.081-.275-.123zm-4.261-1.679c.156.701 1.2 2.12 2.414 3.674-.943-1.734-1.83-3.254-2.414-3.674zm2.414 3.671l.125.229c.012-.009.024-.016.037-.024l-.162-.205zm-2.991-3.467c-.188.693.076 2.433.43 4.373-.031-1.972-.109-3.73-.43-4.373zm.429 4.373c.001.078.003.158.003.238.014-.002.027-.004.041-.004a19.229 19.229 0 00-.044-.234zm-1.036-4.462c-.49.528-1.064 2.189-1.652 4.072.889-1.759 1.637-3.353 1.652-4.072zm-1.653 4.072l-.104.208.036.015.068-.223zM73 84.934c-.68.239-1.962 1.446-3.357 2.838 1.607-1.144 3.009-2.209 3.357-2.838zm-3.356 2.838l-.205.145c.01.011.02.02.029.032.057-.059.117-.117.176-.177zm3.084-3.387c-.713-.104-2.407.368-4.291.952 1.955-.266 3.688-.556 4.291-.952zm-4.291.954c-.092.013-.187.024-.283.039a.32.32 0 00.013.044c.091-.026.181-.056.27-.083zm4.304-1.567c-.582-.423-2.303-.792-4.242-1.149 1.854.671 3.526 1.22 4.242 1.149zm-4.242-1.149l-.305-.112-.015.054.32.058zm4.539.612c-.318-.643-1.668-1.769-3.219-2.986 1.328 1.455 2.553 2.719 3.219 2.986zm-3.22-2.985l-.251-.275-.042.046c.099.076.198.152.293.229zm3.733 2.649c.017-.718-.656-2.344-1.464-4.142.5 1.906.998 3.593 1.464 4.142zm-1.464-4.142l-.101-.389a1.17 1.17 0 00-.063.023l.164.366z" fill="url(#e)" opacity=".4" transform="matrix(.85 0 0 .85 15.404 16.464)"/>
    <path d="M80.305 87.864a2 2 0 11-3.999.001 2 2 0 014 0z" fill="#4d3623"/>
    <path d="M80.305 87.864a2 2 0 11-3.999.001 2 2 0 014 0z" opacity=".9"/>
    <path d="M70.717 86.748a.981.981 0 111.091 1.63.981.981 0 01-1.091-1.63z" fill="url(#f)" opacity=".5" transform="matrix(.85 0 0 .85 15.404 16.464)"/>
    <path d="M75.86 83.672c-.251.374-.969.331-1.606-.096-.638-.427-.95-1.078-.7-1.451v-.001c.25-.374.969-.331 1.605.097.639.426.951 1.076.701 1.451z" fill="url(#g)" opacity=".5" transform="matrix(.85 0 0 .85 15.404 16.464)"/>
    <path d="M78.716 82.673c-.568.873-2.036.925-3.275.117-1.24-.808-1.784-2.17-1.215-3.043.568-.872 2.036-.924 3.275-.117 1.239.809 1.783 2.172 1.215 3.043z" fill="url(#h)" opacity=".75" transform="matrix(.85 0 0 .85 15.404 16.464)"/>
    <g>
      <path d="M62.385 89.942c1.023 11.69 9.056 20.538 17.94 19.761 8.886-.778 15.26-10.886 14.237-22.577-1.022-11.69-9.055-20.539-17.94-19.761-8.886.777-15.26 10.886-14.237 22.577zm4.395-3.011c.21-2.674 4.321-4.131 11.489-3.756 8.052.42 11.188 3.687 10.948 6.36s-3.699 4.011-11.818 3.316c-9.19-.788-10.803-3.574-10.619-5.92z" fill="#f0c7b1"/>
      <path d="M57.798 85.194c.596 7.711 10.263 13.338 19.882 12.458 9.616-.885 17.535-6.722 16.834-14.425-.697-7.699-9.053-13.224-18.673-12.342-9.62.886-18.861 3.762-18.043 14.309zm3.144-2.042c.246-3.146 5.084-4.86 13.516-4.419 9.473.495 13.163 4.338 12.88 7.482s-4.351 4.72-13.903 3.902c-10.811-.927-12.709-4.205-12.493-6.965z" fill="url(#i)" transform="matrix(.85 0 0 .85 14.98 16.252)"/>
      <path d="M60.942 83.152c-.216 2.76 1.682 6.038 12.492 6.964 9.553.818 13.62-.758 13.903-3.902s-3.407-6.987-12.88-7.482c-8.431-.44-13.269 1.273-13.515 4.42z" fill="url(#j)" transform="matrix(.85 0 0 .85 14.98 16.252)"/>
      <path d="M87.713 83.815c-.871-.572-2.792-1.362-2.792-1.362s2.185.5 3.051 1.087 1.77 2.011 1.77 2.011-1.158-1.164-2.03-1.736zm-15.767-2.002s-2.258-.029-3.864.966c-1.474.913-2.08 2.282-2.08 2.282s1.401-1.466 2.39-2.126c.925-.617 3.554-1.122 3.554-1.122z" fill="#c27b55"/>
      <path d="M78.524 83.341c-5.233-.183-13.271.32-11.398 5.278-2.723-1.644-.63-7.489 11.893-6.446 6.067.505 13.28 3.634 9.932 8.3 1.06-4.877-5.292-6.95-10.427-7.132zm9.235 8.57l-2.568.813c-4.5.073-7.013-.238-11.217-.428-1.937-.088-3.678-1.042-5.946-2.097 1.306 1.443 3.48 2.602 5.901 2.742 4.071.236 6.828.29 11.397.325l2.433-1.354z"/>
    </g>
    <g>
      <path d="M139.059 83.152c.216 2.76-1.682 6.038-12.492 6.964-9.553.818-13.62-.758-13.903-3.902s3.407-6.987 12.88-7.482c8.431-.44 13.269 1.273 13.515 4.42z" fill="url(#k)" transform="matrix(.85 0 0 .85 14.98 16.252)"/>
      <path d="M126.754 87.864a5.1 5.1 0 01-10.2 0 5.1 5.1 0 0110.2 0z" fill="#4d3623"/>
      <path d="M125.328 78.066l-.071.009c.029.135.058.271.085.406-.006-.137-.009-.277-.014-.415zm.013.414c.069 1.972.185 3.729.518 4.364.174-.696-.124-2.43-.518-4.364zm.517 4.365c-.042.167-.108.281-.207.319-.101.038-.226-.006-.367-.103.04.167.036.297-.036.378-.072.081-.201.101-.372.078.112.13.171.249.146.353-.028.104-.134.182-.293.242.158.063.265.141.29.245.025.104-.032.223-.145.352.17-.021.3.001.37.082.071.081.075.212.035.379.141-.097.266-.139.365-.1.102.038.166.152.206.32.08-.152.172-.249.279-.26.105-.014.217.059.329.188.002-.172.037-.299.128-.36.087-.061.219-.049.379.013-.078-.152-.104-.281-.056-.377.051-.095.174-.146.345-.166-.141-.099-.228-.2-.225-.308-.001-.108.084-.209.227-.306-.171-.021-.291-.072-.342-.167-.05-.095-.022-.225.057-.377-.161.06-.291.072-.38.011s-.124-.188-.125-.36c-.111.128-.224.199-.33.185-.107-.014-.198-.108-.278-.261zm.608.075c.479-.535 1.021-2.209 1.569-4.104-.853 1.777-1.567 3.386-1.569 4.104zm1.569-4.104c.06-.122.121-.246.179-.37-.021-.007-.042-.017-.063-.026l-.116.396zm-1.063 4.454c.673-.252 1.932-1.483 3.298-2.905-1.582 1.176-2.963 2.269-3.298 2.905zm3.298-2.905l.305-.225c-.015-.018-.03-.033-.042-.049-.088.09-.175.183-.263.274zm-3.015 3.449c.713.088 2.399-.417 4.271-1.041-1.948.308-3.678.633-4.271 1.041zm4.271-1.04l.337-.052-.014-.057-.323.109zm-4.273 1.653c.591.412 2.318.747 4.263 1.063-1.866-.633-3.549-1.148-4.263-1.063zm4.263 1.063c.095.033.19.067.285.098a.92.92 0 00.013-.05 15.38 15.38 0 01-.298-.048zm-4.551-.52c.332.637 1.708 1.738 3.282 2.924-1.358-1.43-2.609-2.668-3.282-2.924zm3.283 2.922l.178.189c.01-.012.02-.021.031-.032-.07-.052-.142-.105-.209-.157zm-3.787-2.575c-.003.719.702 2.331 1.547 4.113-.54-1.897-1.071-3.575-1.547-4.113zm1.547 4.114c.021.075.043.152.063.229a.474.474 0 01.039-.014 49.358 49.358 0 00-.102-.215zm-2.157-4.042c-.336.637-.461 2.39-.542 4.361.404-1.93.713-3.663.542-4.361zm-.542 4.361c-.017.075-.031.151-.047.228.014.003.024.003.039.005l.008-.233zm-.03-4.581c-.596.407-1.521 1.904-2.508 3.61 1.255-1.52 2.334-2.912 2.508-3.61zm-2.508 3.61c-.052.063-.107.13-.161.193.013.008.024.014.037.024l.124-.217zm2.103-4.069c-.716.083-2.23.978-3.897 2.029 1.818-.762 3.418-1.491 3.897-2.029zm-3.897 2.031c-.087.036-.175.072-.263.11a.273.273 0 00.023.04l.24-.15zm3.752-2.628c-.672-.257-2.43-.168-4.396-.011 1.965.168 3.722.265 4.396.011zm-4.396-.011l-.322-.029c-.001.019-.003.038-.001.056l.323-.027zm4.543-.583c-.474-.539-2.069-1.277-3.882-2.051 1.659 1.06 3.169 1.964 3.882 2.051zm-3.882-2.051l-.315-.201a1.399 1.399 0 01-.028.055c.115.049.232.097.343.146zm4.29 1.593c-.169-.698-1.241-2.094-2.485-3.623.976 1.712 1.893 3.213 2.485 3.623zm-2.485-3.623a19.685 19.685 0 01-.198-.349l-.057.039c.085.103.172.207.255.31z" fill="url(#l)" opacity=".7" transform="matrix(.85 0 0 .85 14.554 16.464)"/>
      <path d="M126.886 78.086l-.07-.01-.024.414c.029-.134.062-.27.094-.404zm-.095.403c-.443 1.922-.787 3.649-.63 4.35.35-.628.51-2.38.63-4.35zm-.63 4.35c-.084.15-.177.243-.283.254-.106.01-.216-.064-.327-.195-.004.171-.042.297-.133.356-.09.059-.221.045-.38-.021.075.155.101.285.049.378-.054.094-.176.142-.346.158.138.101.22.204.217.312-.002.107-.089.207-.23.302.17.024.289.079.337.174.048.096.018.225-.064.375.162-.057.293-.065.38-.002.087.063.12.19.115.363.117-.125.229-.196.337-.179.105.014.194.113.27.268.046-.167.113-.279.216-.315.101-.036.226.01.363.111-.035-.167-.028-.299.045-.378.072-.079.204-.096.375-.072-.11-.132-.168-.251-.138-.355.027-.104.136-.18.299-.237-.159-.064-.263-.145-.288-.25-.022-.105.038-.223.154-.349-.172.016-.302-.006-.37-.088-.07-.082-.072-.214-.027-.379-.143.094-.269.134-.368.093-.102-.041-.166-.156-.203-.324zm.568.231c.601-.394 1.557-1.871 2.578-3.558-1.285 1.495-2.391 2.863-2.578 3.558zm2.578-3.559c.089-.102.18-.206.269-.311-.02-.013-.037-.028-.056-.042-.071.119-.142.238-.213.353zm-2.18 4.027c.715-.07 2.249-.934 3.937-1.953-1.833.727-3.45 1.425-3.937 1.953zm3.936-1.954l.354-.138c-.01-.021-.021-.04-.028-.059-.108.066-.216.133-.326.197zm-3.804 2.553c.666.27 2.426.218 4.396.101-1.963-.208-3.717-.342-4.396-.101zm4.395.1l.339.037.002-.058-.341.021zm-4.554.492c.463.551 2.046 1.321 3.842 2.129-1.639-1.095-3.131-2.027-3.842-2.129zm3.841 2.129c.082.057.167.114.25.168a.328.328 0 00.024-.045 15.678 15.678 0 01-.274-.123zm-4.26-1.679c.155.701 1.199 2.12 2.413 3.674-.943-1.734-1.829-3.254-2.413-3.674zm2.414 3.671l.124.229a.337.337 0 01.037-.024c-.054-.068-.11-.138-.161-.205zm-2.992-3.467c-.188.693.076 2.433.43 4.373-.031-1.972-.109-3.73-.43-4.373zm.429 4.373c.001.078.003.158.003.238.015-.002.026-.004.04-.004a9.592 9.592 0 00-.043-.234zm-1.037-4.462c-.489.528-1.064 2.189-1.652 4.072.89-1.759 1.637-3.353 1.652-4.072zm-1.652 4.072l-.104.208.035.015.069-.223zM125 84.934c-.68.239-1.961 1.446-3.356 2.838 1.606-1.144 3.008-2.209 3.356-2.838zm-3.356 2.838l-.205.145c.01.011.02.02.029.032.057-.059.118-.117.176-.177zm3.084-3.387c-.713-.104-2.406.368-4.29.952 1.954-.266 3.688-.556 4.29-.952zm-4.29.954c-.093.013-.188.024-.283.039l.013.044c.09-.026.18-.056.27-.083zm4.303-1.567c-.582-.423-2.303-.792-4.242-1.149 1.854.671 3.526 1.22 4.242 1.149zm-4.242-1.149l-.305-.112a.752.752 0 00-.015.054l.32.058zm4.539.612c-.318-.643-1.669-1.769-3.22-2.986 1.329 1.455 2.554 2.719 3.22 2.986zm-3.22-2.985l-.251-.275-.043.046c.099.076.2.152.294.229zm3.733 2.649c.017-.718-.656-2.344-1.464-4.142.501 1.906.998 3.593 1.464 4.142zm-1.464-4.142l-.102-.389a1.17 1.17 0 00-.063.023l.165.366z" fill="url(#m)" opacity=".4" transform="matrix(.85 0 0 .85 14.554 16.464)"/>
      <path d="M123.655 87.864a2 2 0 11-4 0 2 2 0 014 0z" fill="#4d3623"/>
      <path d="M123.655 87.864a2 2 0 11-4 0 2 2 0 014 0z" opacity=".9"/>
      <path d="M122.718 86.748a.98.98 0 111.09 1.628.98.98 0 01-1.09-1.628z" fill="url(#n)" opacity=".5" transform="matrix(.85 0 0 .85 14.554 16.464)"/>
      <path d="M127.859 83.672c-.251.374-.969.331-1.605-.096-.638-.427-.95-1.078-.7-1.451l.001-.001c.25-.374.969-.331 1.605.097.638.426.95 1.076.699 1.451z" fill="url(#o)" opacity=".5" transform="matrix(.85 0 0 .85 14.554 16.464)"/>
      <path d="M130.717 82.673c-.569.873-2.036.925-3.276.117-1.239-.808-1.784-2.17-1.215-3.043.568-.872 2.035-.924 3.275-.117 1.239.809 1.783 2.172 1.216 3.043z" fill="url(#p)" opacity=".75" transform="matrix(.85 0 0 .85 14.554 16.464)"/>
      <g>
        <path d="M123.336 67.365c-8.885-.778-16.917 8.07-17.94 19.761-1.022 11.691 5.352 21.8 14.237 22.577 8.885.777 16.917-8.07 17.94-19.761 1.023-11.691-5.35-21.8-14.237-22.577zm-.776 25.485c-8.12.696-11.577-.644-11.817-3.316s2.896-5.94 10.948-6.36c7.167-.374 11.28 1.082 11.488 3.756.183 2.347-1.43 5.133-10.619 5.92z" fill="#f0c7b1"/>
        <path d="M124.159 70.885c-9.62-.882-17.976 4.643-18.673 12.342-.701 7.703 7.218 13.54 16.834 14.425 9.619.88 19.286-4.747 19.882-12.458.819-10.547-8.423-13.423-18.043-14.309zm2.407 19.231c-9.553.818-13.62-.758-13.903-3.902s3.407-6.987 12.88-7.482c8.432-.44 13.27 1.273 13.516 4.419.215 2.761-1.682 6.039-12.493 6.965z" fill="url(#q)" transform="matrix(.85 0 0 .85 14.98 16.252)"/>
        <path d="M139.059 83.152c.216 2.76-1.682 6.038-12.492 6.964-9.553.818-13.62-.758-13.903-3.902s3.407-6.987 12.88-7.482c8.431-.44 13.269 1.273 13.515 4.42z" fill="url(#r)" transform="matrix(.85 0 0 .85 14.98 16.252)"/>
        <path d="M110.217 85.551s.904-1.423 1.77-2.01 3.052-1.088 3.052-1.088-1.921.79-2.793 1.362-2.029 1.736-2.029 1.736zm21.35-2.616c.988.66 2.39 2.126 2.39 2.126s-.607-1.369-2.08-2.282c-1.606-.994-3.865-.966-3.865-.966s2.63.505 3.554 1.122z" fill="#c27b55"/>
        <path d="M111.008 90.474c-3.347-4.666 3.866-7.795 9.932-8.3 12.523-1.043 14.616 4.801 11.893 6.446 1.874-4.958-6.165-5.461-11.397-5.278-5.137.18-11.488 2.254-10.428 7.132zm3.624 2.791c4.57-.034 7.327-.088 11.397-.325 2.423-.14 4.595-1.298 5.902-2.742-2.268 1.055-4.01 2.009-5.947 2.097-4.203.191-6.717.5-11.216.429l-2.568-.813 2.432 1.354z"/>
      </g>
    </g>
    <g>
      <path d="M141 113.974c.035 22.622-18.292 40.994-40.938 41.025-22.642.037-41.028-18.273-41.063-40.9-.035-22.62 18.292-41.064 40.937-41.1 22.643-.035 41.031 18.35 41.064 40.975z" fill="url(#s)" transform="matrix(.85 0 0 .85 14.98 16.252)"/>
      <path d="M137.5 53.999c0 20.711-16.789 37.5-37.499 37.5-20.711 0-37.501-16.789-37.501-37.5s16.79-37.5 37.501-37.5c20.71 0 37.499 16.789 37.499 37.5z" fill="url(#t)" transform="matrix(.85 0 0 .85 14.98 16.252)"/>
    </g>
    <g>
      <path d="M59.594 79.041c6.354-7.975 17.287-6.649 26.246-5.367 2.28.327 4.625.571 6.86 1.136 1.601.404 2.86 2.229 1.573 3.702-.602.702-1.915.572-2.726.555-10.728-.217-22.854-6.386-31.953-.026z" fill="#3b3128"/>
    </g>
    <g>
      <path d="M140.42 78.718c-1.84-1.23-3.786-2.1-5.987-2.455-8.072-1.31-23.448 4.071-27.49 2.932-2.475-.699-1.974-3.178-.88-3.79.66-.367.842-.358 6.723-1.37 9.994-1.716 21.183-3.082 27.634 4.683z" fill="#3b3128"/>
    </g>
    <g>
      <path d="M97.286 91.497s-1.19 9.45-1.722 11.289c-1.173 4.04-5.243 9.704-4.454 12.265 1.58 5.118 6.407 3.819 8.946 3.8 2.348-.019 6.86 1.32 7.787-2.015.3-1.076-.374-3.796-.374-3.796s-2.248 2.645-7.544 2.352c-1.511-.084-3.97-1.781-3.999-4.175-.036-3.244 1.532-5.98 1.875-9.2.258-2.447-.515-10.52-.515-10.52z" fill="#e1ac8f"/>
      <path d="M104.394 117.375c.914 0 1.161.277 1.161.62 0 .343-.285.872-1.16.62-.965-.274-2.647-.148-2.647-.148s1.73-1.092 2.646-1.092zm-8.731 0c-.915.001-1.161.28-1.161.623-.001.343.274.836 1.161.62.977-.24 2.645-.149 2.645-.149s-1.73-1.09-2.645-1.094zm11.805-4.335s1.265 1.643 1.003 3.379c-.256 1.686-2.814 2.432-2.814 2.432s1.776-1.289 1.99-2.853c.101-.733-.18-2.958-.18-2.958zm-15.626-1.688s-.923 2.299-.656 3.7c.485 2.529 3.148 3.539 3.148 3.539s-1.661-1.733-2.252-3.266c-.647-1.674-.24-3.973-.24-3.973z" fill="#c27b55"/>
      <path d="M104.35 114.266c.886-.756.975-1.187.791-1.47-.182-.284-.715-.463-1.457.45-.818 1.002-2.597 1.745-2.597 1.745s2.376.029 3.262-.725z" fill="#ffe4d6"/>
    </g>
    <g>
      <path d="M99.98 31.662z" fill="#2a232b"/>
    </g>
    <g>
      <path d="M99.98 31.662z" fill="#2a232b"/>
    </g>
    <g>
      <path d="M53.207 96.912c-2.06-7.492-3.169-14.053-4.709-20.897l.07-.016c-.582-1.436-2.687-12.801-2.707-12.923-2.146-15.105 4.245-15.967 4.114-22.269 2.69 1.348 5.306.68 7.667-1.16-2.48-1.274-1.698-1.476-4.992-3.48 2.322-.402 3.678.14 5.65.385-1.686-1.685-4.994-5.124-7.144-4.668l-.14-.3c3.112-2.43 7.266 2.626 11.01 1.257.114-13.917 20.458-16.807 25.409-18.875 6.592-2.508 13.478-8.025 18.32-8.518-2.741 2.755-4.42 7.182-4.545 10.504 3.993-3.813 4.276-3.701 10.328-10.424 0 5.41-1.498 6.089-3.443 9.263 5.28-3.46 11.862-13.165 21.999-14.65l.111.315c-3.653 2.152-6.48 5.784-8.413 10.802 1.918-2.317 4.633-4.83 7.638-5.285l.113.313c-1.883 1.127-5.57 4.881-6.415 11.168 3.724-4.16 9.648-7.606 13.714-8.908l.159.294c-3.733 3.037-5.23 8.353-6.074 12.874 2.618-3.893 4.141-4.78 7.435-6.416-1.06 1.585-.991 1.308-1.834 3.031 2.036 5.205 8.766 5.407 9.916 14.5 1.385-1.21 1.935-1.514 3.528-2.628l.24.231c-1.197 1.86-2.184 5.151-2.841 7.354 2.363-1.804 6.012-3.134 8.582-4.06l.179.278c-2.168 2.204-4.8 5.564-5.238 9.209.85-.503.891-.446 1.998-1.246 0 2.619.089 2.285.108 3.489 1.068-.956 1.232-1.09 1.934-1.854-.155 27.508-1.568 22.025-5.37 41.196-.666 3.369-1.845 9.25-2.601 12.076l-5.142.883c1.59-19.035-.079-14.885 1.077-26.863 1.71-17.662-12.583-32.14-31.471-27.402-3.822.96-19.074.958-22.894 0-20.865-5.238-28.382 6.953-30.622 28.287-1.097 10.47-1.366 6.937.227 25.978l-4.93-.845z" fill="#3b3128"/>
      <path d="M152.999 45.457c-.018-1.205-.108-.87-.108-3.49-1.107.8-1.148.743-1.998 1.247.437-3.645 3.07-7.005 5.238-9.21l-.18-.278c-2.568.928-6.217 2.257-8.58 4.061.655-2.203 1.643-5.495 2.84-7.354l-.24-.231c-1.593 1.114-2.143 1.418-3.528 2.628-1.15-9.092-7.88-9.296-9.916-14.5.843-1.723.774-1.446 1.834-3.031-3.294 1.635-4.817 2.523-7.435 6.416.844-4.52 2.342-9.837 6.074-12.874l-.159-.295c-4.066 1.303-9.99 4.75-13.714 8.908.844-6.286 4.532-10.04 6.415-11.167l-.113-.313c-3.005.454-5.72 2.969-7.638 5.285 1.933-5.019 4.76-8.65 8.413-10.802l-.111-.314c-10.137 1.484-16.72 11.19-21.999 14.65 1.945-3.176 3.444-3.856 3.444-9.264-6.053 6.723-6.336 6.611-10.329 10.424.124-3.322 1.804-7.75 4.545-10.504-4.841.493-11.727 6.009-18.32 8.518-4.95 2.067-25.294 4.957-25.407 18.875-3.745 1.37-7.9-3.686-11.011-1.258l.14.3c2.15-.456 5.458 2.983 7.144 4.67-1.972-.247-3.328-.788-5.65-.387 3.294 2.005 2.511 2.207 4.992 3.48-2.36 1.84-4.976 2.508-7.667 1.161.13 6.303-6.26 7.165-4.114 22.268.02.123 2.125 11.488 2.708 12.924l-.07.016c1.54 6.844 2.649 13.405 4.708 20.897l.022.003c-.562-13.976-9.367-33.844-4.2-46.57.674-1.662 3.282-6.044 3.282-6.044s8.183-1.075 8.568-4.25c0 0-1.7-.85-2.55-1.7 1.7.85 1.7-1.7 3.4-.85 0-1.7-2.55-.85-2.55-2.55 1.7 0 3.4 0 5.1 1.7-.85-4.25 0-8.5 3.4-11.05 8.5-6.8 19.55-5.95 28.05-12.75-.85 4.25-1.7 8.5-1.7 12.75 5.1-2.55 6.8-7.65 11.05-11.05.85 3.4-.85 7.65-.85 11.05 2.55-5.95 5.95-11.9 13.6-13.6-3.4 3.4-3.4 8.5-3.4 12.75 0-3.4 3.4-5.1 4.25-7.65v10.2c1.7-5.1 5.1-7.65 9.35-9.35-3.4 3.4-2.55 6.8-3.4 11.05 2.55-2.55 5.95-3.4 8.5-5.95 2.55 5.1.85 9.35.85 14.45.85-4.25 5.1-6.8 7.65-10.2.85 4.25.85 8.5 0 12.75.85-2.55 2.55-4.25 3.4-6.8 0 4.13-.568 7.702-1.683 11.17 1.067-1.234 2.809-1.794 3.383-3.52v10.223c.493-1.014 1.947-1.367 2.55-2.573-.726 2.9-.216 5.187-.05 7.906.315-1.666 1.92-2.687 2.5-4.222.033-.66.068-1.323.1-1.984.194.775.114 1.414-.1 1.984-.776 15.106-2.205 30.189-5.319 44.734l.551-.094c.757-2.826 1.935-8.708 2.602-12.076 3.802-19.171 5.215-13.688 5.37-41.196-.702.764-.866.897-1.934 1.853z" fill="#4a423a"/>
      <path d="M157.591 32.992c-4.206.71-7.145 2.073-9.392 3.613.327-.854 1.864-5.67 3.519-7.693-2.542 1.133-4.012 2.349-4.862 2.984 0-.877-.338-1.89-.502-2.414-.16-.438-.295-.95-1.08-2.227-4.395-6.202-4.67-3.607-8.27-8.356.657-1.539 1.606-3.036 2.797-4.275-3.322.472-5.07 1.764-7.174 3.833a.9.9 0 00-.085.102c1.318-5.207 3.901-9.721 8.976-11.415-6.277-.228-14.046 4.413-17.952 9.044 1.686-5.424 3.949-8.008 7.31-10.413-2.418-.357-4.789.631-6.664 2.193 2.16-3.737 5.37-6.714 7.948-8.1-.366-.009-.799-.034-1.275 0-.66-.17-4.657.481-6.086 1.096-7.08 2.765-12.23 9.2-14.441 11.288 1.628-2.633 1.708-4.503 1.41-7.242-.556.479-9.872 9.397-9.987 9.512.66-3.663 1.908-5.897 4.267-9.172-4.205-.787-14.732 6.135-21.258 7.982-6.838 1.852-23.804 5.714-23.027 19.295-3.65.696-8.996-5.166-11.798-.247 2.25-1.334 5.229 1.879 7.302 3.715-.85-.139-3.692-.806-5.066.11 1.61.625 3.017 2.493 5.006 3.485a.302.302 0 01.077.034c-1.818.96-3.967 1.73-5.942 1.182-.297-.085-.493-.136-.493-.145-.23-.102-.476-.204-.74-.323h-.008l-.008-.008c-.11-.06-.221-.12-.34-.179.59 4.767-6.645 8.632-5.848 18.717.327 6.206 4.206 25.082 9.083 37.881l.41.123c-2.033-7.332-3.21-14.23-4.733-20.996-.133 0-2.612-12.787-2.635-12.928-2.13-14.987 4.245-16.074 4.122-21.964 2.653 1.326 5.552.37 7.803-1.47-2.65-1.32-2.085-1.69-4.828-3.358 1.839-.318 4.083.41 5.627.51-1.994-1.995-5.354-5.534-7.633-5.05 3.033-2.367 7.223 2.78 11.076 1.242 0-13.926 20.164-16.69 25.304-18.836 6.18-2.352 13.84-8.055 17.798-8.458-2.074 2.09-4.267 6.716-4.267 10.693 4.11-3.942 4.514-3.923 10.336-10.387 0 5.112-1.91 6.025-3.766 9.325C113.054 12.15 119.654 1.84 130.119.309c-4.381 2.582-7.17 7.076-8.849 11.875 2-2.6 4.93-5.55 8.186-6.044-1.708 1.022-5.832 4.915-6.562 11.84 3.693-4.346 9.848-7.944 13.999-9.273-3.914 3.186-5.413 8.815-6.281 13.787 1.433-2.187 2.853-4.162 5.074-5.559.01-.008.026-.017.034-.017.875-.594.646-.433 2.143-1.181-.569.85-.621.74-1.522 2.584 2.062 5.42 8.945 5.45 9.97 14.85 1.578-1.4 2.075-1.653 3.757-2.831-1.31 2.034-2.366 5.752-3.017 7.922 2.469-2.113 7.037-3.68 8.959-4.378-2.55 2.593-5.027 6.032-5.321 9.656.521-.351 1.184-.629 2.031-1.24 0 2.314.11 2.005.11 3.535.448-.409 1.463-1.283 1.93-1.793-.166 26.958-1.597 21.729-5.363 40.723-1.41 7.12-2.154 10.413-2.62 12.14l.364-.073c3.047-9.139 9.127-29.786 8.852-40.474-.028-3.995-.9-12.325-.943-13.175-.018.015-1.772 1.675-1.794 1.675 0-.435-.178-2.283-.178-3.29-.3.23-.93.661-1.777 1.156 1.173-3.538 2.957-5.737 6.29-9.732z" fill="#0d0905"/>
    </g>
    <g>
      <path d="M99.98 31.662z" fill="#26120b"/>
    </g>
  </g>
</svg>
