<svg viewBox="0 0 200 200" xmlns="http://www.w3.org/2000/svg">
  <path fill="currentColor" d="M26.9,-56.3C32.7,-43.4,33.5,-31.6,39.8,-22.4C46.1,-13.2,57.9,-6.6,58,0.1C58,6.7,46.4,13.4,39.7,21.8C33,30.3,31.1,40.5,25.3,52.1C19.5,63.7,9.7,76.8,0.1,76.6C-9.6,76.5,-19.1,63.1,-31.7,55.4C-44.4,47.7,-60,45.7,-71.7,37.4C-83.5,29.1,-91.3,14.6,-92.8,-0.9C-94.4,-16.4,-89.8,-32.8,-81,-46C-72.1,-59.2,-58.9,-69.2,-44.7,-77.2C-30.5,-85.2,-15.2,-91.2,-2.3,-87.2C10.6,-83.2,21.2,-69.2,26.9,-56.3Z" transform="translate(100 100)" />
</svg>
