<svg viewBox="0 0 200 200" xmlns="http://www.w3.org/2000/svg">
  <path fill="currentColor" d="M40.7,-67.4C52.8,-63.5,62.7,-52.7,69.5,-40.3C76.4,-28,80.1,-14,77.5,-1.5C75,11,66.1,22,59.3,34.4C52.5,46.8,47.7,60.6,38.2,66.1C28.6,71.6,14.3,68.9,3.8,62.3C-6.7,55.7,-13.4,45.3,-21.2,38.7C-28.9,32.2,-37.7,29.5,-50.2,23.7C-62.7,17.9,-79,8.9,-78.9,0C-78.9,-8.9,-62.5,-17.8,-51.9,-26.8C-41.2,-35.8,-36.3,-45,-28.6,-51.5C-20.9,-58,-10.4,-61.7,1.9,-65.1C14.3,-68.4,28.6,-71.3,40.7,-67.4Z" transform="translate(100 100)" />
</svg>
