<svg viewBox="0 0 200 200" xmlns="http://www.w3.org/2000/svg">
  <path fill="currentColor" d="M41.7,-70C52.9,-65.8,60,-52.2,67,-39C74,-25.8,81,-12.9,81.7,0.4C82.3,13.6,76.5,27.2,66.7,35.6C56.8,43.9,42.8,47,31,54.1C19.2,61.3,9.6,72.5,-1.1,74.4C-11.7,76.2,-23.5,68.6,-32.3,59.7C-41.1,50.9,-47.1,40.7,-53.5,30.6C-59.9,20.4,-66.9,10.2,-71.4,-2.6C-75.8,-15.4,-77.9,-30.7,-69.7,-37.8C-61.5,-44.9,-43,-43.8,-29.7,-46.7C-16.4,-49.7,-8.2,-56.8,3.5,-62.9C15.3,-69.1,30.5,-74.2,41.7,-70Z" transform="translate(100 100)" />
</svg>
