<svg xmlns="http://www.w3.org/2000/svg" viewBox="0 0 480 480">
  <defs>
    <linearGradient x1="19.574%" y1="10.207%" x2="82.94%" y2="91.927%" id="a">
      <stop stop-color="#00EAF8" offset="0%"/>
      <stop stop-color="#6D42EF" offset="100%"/>
    </linearGradient>
  </defs>
  <g fill="none" fill-rule="evenodd">
    <path d="M0 0h480v480H0z"/>
    <path d="M337.938 30C345.707 30 352 36.377 352 44.25v28.5c0 7.873-6.293 14.25-14.063 14.25h-13.466v61.27c59.106 31.787 100.035 94.729 98.487 165.07-1.003 45.468-18.608 86.836-46.974 118.316C365.347 443.454 350.012 450 334.123 450H145.808c-15.643 0-30.837-6.273-41.351-17.86C74.975 399.666 57 356.556 57 309.23c0-70.49 40.128-131.223 98.539-161.778L155.538 87h-14.476c-7.665 0-13.894-6.208-14.059-13.936L127 72.75v-28.5c0-7.873 6.293-14.25 14.063-14.25Zm-69.775 57h-56.317v94.535c-17.78 9.309-88.27 34.084-97.526 113.109 57.935-28.964 112.299-27.3 159.95-3.476 39.582 19.796 71.546 18.063 92.248 18.063-.238-80.802-66.277-110.055-98.354-127.308L268.163 87Z" fill="url(#a)" fill-rule="nonzero"/>
  </g>
</svg>
