<svg xmlns="http://www.w3.org/2000/svg" viewBox="0 0 1574 347">
  <defs>
    <linearGradient x1="19.652%" y1="10.207%" x2="82.856%" y2="91.927%" id="a">
      <stop stop-color="#00EAF8" offset="0%"/>
      <stop stop-color="#6D42EF" offset="100%"/>
    </linearGradient>
  </defs>
  <g fill-rule="nonzero" fill="none">
    <g fill="#FFF">
      <path d="M382 261h42.236v-78.281c0-13.09 7.687-21.444 18.742-21.444 10.97 0 18.225 7.665 18.225 19.893V261h40.594v-78.97c0-12.66 6.996-20.755 18.657-20.755 10.71 0 18.31 7.148 18.31 20.324V261H581v-89.046C581 143.965 563.726 127 538.678 127c-19.606 0-35.067 10.248-39.99 26.008h-1.382C493.765 137.162 479.513 127 461.116 127c-18.138 0-31.957 9.904-37.485 26.008h-1.468v-24.286H382V261ZM641.65 263c18.498 0 31.291-7.135 38.552-20.632h1.037v18.397H721v-89.75c0-27.94-24.98-44.015-58.777-44.015-35.699 0-55.925 17.881-59.296 41.952l38.983 1.375c1.815-8.424 8.817-13.582 19.967-13.582 10.372 0 16.942 4.986 16.942 13.84v.43c0 8.081-8.817 9.8-31.463 11.778-26.882 2.235-49.356 12.121-49.356 41.35C598 250.277 616.238 263 641.65 263Zm13.053-27.51c-9.768 0-16.683-4.642-16.683-13.41 0-8.511 6.742-13.67 18.757-15.474 7.866-1.118 17.547-2.837 22.301-5.33v12.55c0 12.896-10.891 21.665-24.375 21.665ZM818.585 128.7H794.69V97h-42.18v31.7H735v31.01h17.51v64.345c-.258 26.79 17.166 40.227 46.925 38.849 10.179-.517 17.51-2.584 21.565-3.79l-6.383-30.407c-1.812.43-6.038 1.292-9.23 1.292-6.814 0-10.696-2.757-10.696-10.595v-59.695h23.894V128.7ZM912.585 128.7H888.69V97h-42.18v31.7H829v31.01h17.51v64.345c-.258 26.79 17.166 40.227 46.925 38.849 10.179-.517 17.51-2.584 21.565-3.79l-6.383-30.407c-1.812.43-6.038 1.292-9.23 1.292-6.814 0-10.696-2.757-10.696-10.595v-59.695h23.894V128.7ZM956.456 261h45.138l20.674-76.914h1.464L1044.406 261h45.052L1124 129h-42.295l-17.314 83.961h-1.12L1043.631 129h-41.262l-19.123 84.563h-1.12L964.295 129H922zM1175.65 263c18.498 0 31.291-7.135 38.552-20.632h1.037v18.397H1255v-89.75c0-27.94-24.98-44.015-58.777-44.015-35.699 0-55.925 17.881-59.296 41.952l38.983 1.375c1.815-8.424 8.817-13.582 19.967-13.582 10.372 0 16.942 4.986 16.942 13.84v.43c0 8.081-8.817 9.8-31.463 11.778-26.882 2.235-49.356 12.121-49.356 41.35 0 26.134 18.238 38.857 43.65 38.857Zm13.053-27.51c-9.768 0-16.683-4.642-16.683-13.41 0-8.511 6.742-13.67 18.757-15.474 7.866-1.118 17.547-2.837 22.301-5.33v12.55c0 12.896-10.891 21.665-24.375 21.665ZM1320 84h-42v177h42zM1406.072 264c34.787 0 57.662-16.855 62.496-42.958l-38.758-1.124c-3.28 8.816-11.912 13.57-22.961 13.57-16.229 0-26.242-10.804-26.242-27.054v-1.124H1469v-10.545c0-43.736-26.587-67.765-64.223-67.765-40.053 0-65.777 27.486-65.777 68.63 0 42.526 25.378 68.37 67.072 68.37Zm-25.465-83.237c.604-13.225 11.049-23.251 25.033-23.251 13.898 0 23.911 9.68 24.084 23.25h-49.117ZM1489 261h42.155v-71.776c0-15.75 11.207-26.336 26.293-26.336 5 0 12.5.86 16.552 2.238v-36.577c-3.534-.947-7.931-1.549-11.81-1.549-14.483 0-26.035 8.434-30.862 25.905h-1.38v-24.098H1489V261Z"/>
    </g>
    <path d="M232.565 0c6.437 0 11.652 5.248 11.652 11.727v23.455c0 6.48-5.215 11.727-11.652 11.727H220.7v50.973c48.77 26.244 82.543 78.21 81.265 136.287-.828 37.54-15.354 71.695-38.76 97.686-8.776 9.74-21.43 15.145-34.54 15.145H73.278c-12.908 0-25.445-5.18-34.12-14.746C14.83 305.443 0 269.85 0 230.776c0-58.199 33.111-108.342 81.308-133.57V46.909H69.435c-6.338 0-11.49-5.088-11.648-11.429l-.004-.298V11.727C57.783 5.248 62.998 0 69.435 0Zm-58.327 46.909h-46.469v78.438c-14.671 7.685-72.835 28.14-80.472 93.386 47.804-23.914 92.662-22.54 131.98-2.87 27.435 13.73 50.435 14.916 67.217 14.944h1.188c2.747-.003 5.32-.03 7.712-.03-.196-66.713-54.687-90.866-81.155-105.11l-.001-78.758Z" fill="url(#a)"/>
  </g>
</svg>
