<svg width="240" height="272" viewBox="0 0 240 272" fill="none" xmlns="http://www.w3.org/2000/svg">
<path fill-rule="evenodd" clip-rule="evenodd" d="M68.0459 42.6073H59.278C54.5237 42.6073 50.673 38.7356 50.673 33.9555V16.6518C50.673 11.8717 54.5237 8 59.278 8H179.749C184.503 8 188.354 11.8717 188.354 16.6518V33.9555C188.354 38.7356 184.503 42.6073 179.749 42.6073H170.987V80.2124C207.004 99.5745 231.944 137.913 231.001 180.758C230.39 208.454 219.662 233.652 202.377 252.826C195.895 260.013 186.551 264 176.868 264H62.1164C52.5841 264 43.3252 260.179 36.9185 253.121C18.953 233.341 8 207.082 8 178.256C8 135.319 32.4526 98.3259 68.0459 79.714V42.6073ZM102.358 42.6073V100.475C101.263 101.048 99.8413 101.716 98.1631 102.506C83.2261 109.53 47.9988 126.098 42.9285 169.37C78.2323 151.729 111.359 152.741 140.396 167.254C162.785 178.446 181.174 178.34 193.787 178.267C194.762 178.261 195.703 178.256 196.608 178.256C196.473 132.177 161.191 113.62 140.651 102.816C139.252 102.081 137.922 101.381 136.675 100.711V42.6073H102.358Z" fill="url(#paint0_linear_10_6)"/>
<defs>
<linearGradient id="paint0_linear_10_6" x1="-14" y1="103" x2="202.304" y2="148.587" gradientUnits="userSpaceOnUse">
<stop stop-color="#7EE787"/>
</linearGradient>
</defs>
</svg>
