<?xml version="1.0" encoding="UTF-8"?>
<svg width="302px" height="347px" viewBox="0 0 302 347" version="1.1" xmlns="http://www.w3.org/2000/svg" xmlns:xlink="http://www.w3.org/1999/xlink">
    <title>Shape</title>
    <defs>
        <linearGradient x1="19.6517702%" y1="10.2066532%" x2="82.8563479%" y2="91.9270833%" id="linearGradient-1">
            <stop stop-color="#00EAF8" offset="0%"></stop>
            <stop stop-color="#6D42EF" offset="100%"></stop>
        </linearGradient>
    </defs>
    <g id="Page-1" stroke="none" stroke-width="1" fill="none" fill-rule="evenodd">
        <g id="Dark" transform="translate(-88.000000, -89.000000)" fill="url(#linearGradient-1)" fill-rule="nonzero">
            <g id="Logo" transform="translate(88.000000, 89.000000)">
                <path d="M232.564531,0 C239.002303,0 244.216606,5.24795455 244.216606,11.7272727 L244.216606,11.7272727 L244.216606,35.1818182 C244.216606,41.6611364 239.002303,46.9090909 232.564531,46.9090909 L232.564531,46.9090909 L220.7,46.909 L220.700476,97.8815997 C269.470773,124.126381 303.242642,176.092937 301.964945,234.168505 C301.137345,271.708785 286.610795,305.864047 263.205699,331.854589 C254.428788,341.595594 241.775226,347 228.664306,347 L73.2788593,347 C60.37121,347 47.8338026,341.820778 39.1585265,332.254108 C14.8314553,305.442736 0,269.849205 0,230.776224 C0,172.577168 33.111242,122.433872 81.3080269,97.206049 L81.308,46.909 L69.4354693,46.9090909 C63.0967401,46.9090909 57.9441232,41.8213698 57.7870814,35.4799747 L57.7833935,35.1818182 L57.7833935,11.7272727 C57.7833935,5.24795455 62.9976974,0 69.4354693,0 L69.4354693,0 Z M174.238,46.909 L127.769,46.909 L127.769757,125.346731 C113.098014,133.032028 54.9337357,153.487413 47.2965889,218.732535 C95.1013529,194.819493 139.958701,196.192386 179.27694,215.86326 C206.712301,229.592194 229.711658,230.779106 246.493645,230.807457 L247.68176,230.807666 C250.429246,230.804271 253.002848,230.776224 255.39432,230.776224 C255.19831,164.063776 200.707413,139.911023 174.238746,125.666346 L174.238,46.909 Z" id="Shape"></path>
            </g>
        </g>
    </g>
</svg>