<svg viewBox="0 0 101 101" xmlns="http://www.w3.org/2000/svg">
  <path d="M61.658 100.002c-.29-.98-.698-2.582-1.106-4.185-.204-.796-.407-1.591-.597-2.31-.181-.688-1.467-4.306-1.178-4.993 1.163-2.76 6.968-2.409 13.667-10.038 2.668-3.04 3.23-3.864 4.477-5.95 1.296-2.168 2.513-4.71 3.3-7.065.767-2.305 1.138-4.74 1.413-7.063.27-2.285.785-5.299.235-6.88-.426-1.225-.545-3.181-3.534-2.602-2.989.579-1.094 3.138-4.007 5.206-2.911 2.066-11.944 4.09-14.373 4.46-2.429.373-3.973.713-5.419 1.116-1.148.32-2.288.721-3.257 1.303-.983.588-1.645 2.198-2.635 2.23-.988.031-2.277-1.364-3.298-2.045-.977-.651-1.846-1.55-2.827-2.045-.923-.465-1.998-.737-3.064-.93-1.374-.248-3.45-.406-5.184-.558-1.768-.155-3.81-.062-5.42-.371-1.503-.29-3.102-.775-4.242-1.488-1.139-.712-1.963-1.952-2.592-2.788-.52-.693-1.03-1.776-1.65-2.417-.627-.65-1.295-1.394-2.119-1.487-.826-.093-1.856.51-2.357 1.116-.513.62-.719 1.714-.719 2.602 0 1.209.432 3.103.719 4.648.316 1.704.707 3.811 1.178 5.577a48.16 48.16 0 001.65 5.02c.526 1.33 1.218 2.664 1.885 3.904.646 1.2 1.325 2.39 2.121 3.532.863 1.24 2.002 2.727 3.063 3.904a30.68 30.68 0 003.298 3.16c1.084.885 2.284 1.684 3.535 2.418 1.375.805 3.142 1.797 4.713 2.417 1.488.586 2.71 1.022 3.77 1.3.543.144 1.24.686 1.415 1.116.273.682.157 1.737.234 2.975.079 1.24.329 2.477.472 3.718.12 1.04.194 2.263.327 3.418-25.988-.163-43.347.113-43.347.113L.905.48H36.25s11.42 44.45 13.697 44.378C52.225 44.784 65.705.04 65.705.04h34.167l.333 99.559s-15.808.442-38.547.403z" fill="#6D42EF"/>
</svg>
