<svg xmlns="http://www.w3.org/2000/svg" fill="none" viewBox="0 0 224 256">
  <path fill="url(#a)" fill-rule="evenodd" d="M60.046 34.607h-8.768c-4.754 0-8.605-3.871-8.605-8.651V8.652c0-4.78 3.85-8.652 8.605-8.652h120.471c4.754 0 8.605 3.872 8.605 8.652v17.303c0 4.78-3.851 8.652-8.605 8.652h-8.762v37.605c36.017 19.362 60.957 57.701 60.014 100.546-.611 27.696-11.339 52.894-28.624 72.068-6.482 7.187-15.826 11.174-25.509 11.174H54.116c-9.532 0-18.79-3.821-25.197-10.879C10.953 225.341 0 199.082 0 170.256c0-42.937 24.453-79.93 60.046-98.542V34.607Zm34.312 0v57.868c-1.095.573-2.517 1.241-4.195 2.031C75.226 101.53 40 118.098 34.93 161.37c35.303-17.641 68.43-16.629 97.467-2.116 22.389 11.192 40.778 11.086 53.391 11.013.975-.006 1.916-.011 2.821-.011-.135-46.079-35.417-64.636-55.957-75.44a492.992 492.992 0 0 1-3.976-2.105V34.607H94.358Z" clip-rule="evenodd"/>
  <defs>
    <linearGradient id="a" x1="112" x2="112" y1="0" y2="256" gradientUnits="userSpaceOnUse">
      <stop stop-color="#155DFC"/>
      <stop offset="1" stop-color="#1447E6"/>
    </linearGradient>
  </defs>
</svg>
