<svg preserveAspectRatio="none" class="w-full h-full" xmlns="http://www.w3.org/2000/svg" viewBox="0 0 1440 320">
  <path fill="currentColor" fill-opacity="1" d="M0,96L30,90.7C60,85,120,75,180,101.3C240,128,300,192,360,234.7C420,277,480,299,540,272C600,245,660,171,720,149.3C780,128,840,160,900,197.3C960,235,1020,277,1080,282.7C1140,288,1200,256,1260,250.7C1320,245,1380,267,1410,277.3L1440,288L1440,320L1410,320C1380,320,1320,320,1260,320C1200,320,1140,320,1080,320C1020,320,960,320,900,320C840,320,780,320,720,320C660,320,600,320,540,320C480,320,420,320,360,320C300,320,240,320,180,320C120,320,60,320,30,320L0,320Z"></path>
</svg>
