<?xml version="1.0" encoding="UTF-8"?>
<svg width="900px" height="839px" viewBox="0 0 900 839" version="1.1" xmlns="http://www.w3.org/2000/svg" xmlns:xlink="http://www.w3.org/1999/xlink">
    <title>clock.badge.fill</title>
    <defs>
        <linearGradient x1="17.7176382%" y1="14.0989435%" x2="80.6969943%" y2="86.7293928%" id="linearGradient-1">
            <stop stop-color="#536DFE" offset="0%"></stop>
            <stop stop-color="#6A3DE8" offset="100%"></stop>
        </linearGradient>
        <linearGradient x1="18.0546535%" y1="17.9015282%" x2="83.4189702%" y2="84.2712541%" id="linearGradient-2">
            <stop stop-color="#536DFE" offset="0%"></stop>
            <stop stop-color="#6A3DE8" offset="100%"></stop>
        </linearGradient>
    </defs>
    <g id="Icons" stroke="none" stroke-width="1" fill="none" fill-rule="evenodd">
        <g id="Agone" transform="translate(-62, -93)" fill-rule="nonzero">
            <g id="clock.badge.fill" transform="translate(62, 93)">
                <rect id="Rectangle" fill="#FFFFFF" opacity="0" x="0" y="0" width="900" height="838.693335"></rect>
                <path d="M581.970947,81.2529382 C565.264618,107.581137 555.682897,138.787941 555.682897,172.158552 C555.682897,266.613621 633.030148,344.317103 727.841448,344.317103 C754.044821,344.317103 779.004307,338.291846 801.283305,327.381561 C809.552522,356.65085 813.742609,387.474998 813.742609,419.167822 C813.742609,617.703482 649.069275,782.733046 450.178845,782.733046 C251.643186,782.733046 86.6139134,617.703482 86.6139134,419.167822 C86.6139134,220.277393 251.286955,55.6039127 449.821155,55.6039127 C496.329659,55.6039127 540.985473,64.6082196 581.970947,81.2529382 Z M425.228119,192.475363 L425.228119,408.118841 L263.762318,408.118841 C249.504343,408.118841 238.811592,418.811592 238.811592,432.713337 C238.811592,446.969852 249.504343,457.664063 263.762318,457.664063 L449.821155,457.664063 C463.722899,457.664063 474.771881,446.969852 474.771881,432.713337 L474.771881,192.475363 C474.771881,178.573619 463.722899,167.880867 449.821155,167.880867 C435.92087,167.880867 425.228119,178.573619 425.228119,192.475363 Z" id="Shape" fill="url(#linearGradient-1)"></path>
                <path d="M727.841448,48.4752172 C795.208409,48.4752172 851.524929,104.079276 851.524929,172.158552 C851.524929,239.881743 795.208409,295.485802 727.841448,295.485802 C660.118257,295.485802 604.157968,239.881743 604.157968,172.158552 C604.157968,104.079276 660.118257,48.4752172 727.841448,48.4752172 Z M788.553437,101.321817 C782.864727,101.321817 777.949343,104.264283 775.104988,108.812228 L711.999506,199.245104 L680.187223,163.661543 C677.342869,160.719077 673.206107,158.042365 667.774289,158.042365 C658.722143,158.042365 651.738378,165.267022 651.738378,174.899899 C651.738378,178.645104 652.773892,183.458803 655.877788,186.938255 L699.586571,236.702639 C702.947359,240.447844 708.379177,242.321817 712.515939,242.321817 C718.207297,242.321817 723.379573,239.913598 726.223928,235.899899 L801.228561,128.077981 C803.813375,124.598529 804.848889,120.853324 804.848889,117.910858 C804.848889,108.546474 797.348691,101.321817 788.553437,101.321817 Z" id="Combined-Shape" fill="url(#linearGradient-2)"></path>
            </g>
        </g>
    </g>
</svg>