<svg viewBox="0 0 674.818 590.599" xmlns="http://www.w3.org/2000/svg">
  <path d="M32.561 201.258.023 182.93a120.491 120.491 0 0 1 12.685-56.57c7.501 34.05 46.98 50.25 65.196 79.978a72.476 72.476 0 0 1 5.884 62.544l2.14 26.4A121.447 121.447 0 0 1 9.68 228.003a117.31 117.31 0 0 1-8.138-28.282c15.17 1.615 31.02 1.536 31.02 1.536zM617.487 534.67l.998-22.434a72.455 72.455 0 0 1 33.795-8.555c-16.231 13.27-14.203 38.851-25.207 56.697a43.582 43.582 0 0 1-31.96 20.14l-13.582 8.316a73.03 73.03 0 0 1 15.392-59.179 70.543 70.543 0 0 1 12.965-12.046c3.253 8.578 7.599 17.061 7.599 17.061z" fill="#f2f2f2"/>
  <path d="m582.489 577.289-12.3-.001-5.851-47.44 18.153.001z" fill="#ffb6b6"/>
  <path d="m585.625 589.211-39.658-.001v-.502a15.437 15.437 0 0 1 15.436-15.436h.001l7.244-5.495 13.516 5.496h3.462z" fill="#2f2e41"/>
  <path d="m525.348 577.289-12.299-.001-5.851-47.44 18.153.001z" fill="#ffb6b6"/>
  <path d="m528.485 589.211-39.658-.001v-.502a15.437 15.437 0 0 1 15.436-15.436h.001l7.244-5.495 13.516 5.496h3.462zm-8.46-271.281 80 2c15.193 8.253 15.424 26.114 10.446 47.32 0 0 1.68 12.605-1.68 15.966s-5.043 3.361-3.362 9.243-7.199 15.49-6.12 16.568 3.6 6.96 3.6 6.96l-8.404 47.898s-5.882 83.19-7.563 84.87-3.36 0-1.68 4.201 3.361 2.521 1.68 4.202a61.888 61.888 0 0 0-4.201 5.042h-20.316s-1.532-8.403-1.532-9.244-1.68-5.882-1.68-6.722 1.485-2.326 1.485-2.326a27.645 27.645 0 0 0 1.035-5.237c0-1.68 5.042-66.383 5.042-66.383l-10.083-84.03-24.369 82.35s0 72.265-1.68 73.945-1.681.84-.84 4.202 4.2 2.52 1.68 5.042-3.361-1.681-2.521 2.52l.84 4.202-25.209.36s-3.361-7.082-1.68-9.603 1.58-1.833-.471-5.958-2.89-4.966-2.05-5.806.84-5.31.84-5.31l4.201-80.4s.84-84.871.84-87.392a8.382 8.382 0 0 0-.697-3.78v-3.422l3.219-12.125z" fill="#2f2e41"/>
  <circle cx="568.082" cy="126.726" fill="#ffb6b6" r="24.856"/>
  <path d="M555.653 168.011c-5.355 3.184-8.558 9.033-10.397 14.985a142.008 142.008 0 0 0-6.102 33.93l-1.942 34.475-24.055 73.407c20.847 17.64 99.21 4.01 99.21 4.01s2.405-.802 0-3.208-4.748-.274-2.342-2.68.747.275-.055-2.13 0-.803.802-1.605-6.207-8.018-6.207-8.018l6.414-42.136 8.018-84.993c-9.622-12.028-28.972-19.118-28.972-19.118l-5-9-25 2z" fill="#e6e6e6"/>
  <path d="M552.244 112.139a11.746 11.746 0 0 1 2.85.374 40.565 40.565 0 0 0 5.58.935 25.852 25.852 0 0 1 23.147 21.928c1.445-1.26 4.731-3.576 7.425-1.423.041.034.065.052.16.007 1.789-.849 4.965-11.295 5.061-20.493.05-4.882-.718-11.115-4.666-13.09l-.208-.104-.055-.226c-.263-1.098-3.21-2.972-8.333-4.431-9.308-2.652-23.184-7.817-30.997-.215-.592 2.562-2.515 8.046-4.459 8.667-2.152.688-4.01 1.282-4.303 3.922a80.91 80.91 0 0 0 .053 11.279 11.52 11.52 0 0 1 4.093-5.748 8.111 8.111 0 0 1 4.652-1.382z" fill="#2f2e41"/>
  <path d="m505.98 249.481 40.602-26.003-20.45-27.185-20.194 24.84-62.918 3.859a11.991 11.991 0 1 0-.672 17.67z" fill="#ffb6b6"/>
  <path d="M584.268 187.182c2.356 14.262-42.146 41.496-42.146 41.496 0-3.348-26.562 21.923-27.76 19.147-3.408-7.89-5.804-26.579-10.565-29.57-2.723-1.71 16.4-17.78 16.4-17.78s10.009-10.085 23.144-22.804a30.644 30.644 0 0 1 28.382-8.296s10.188 3.546 12.545 17.807z" fill="#e6e6e6"/>
  <path d="M667.957 256.307 641.1 216.264l-26.746 21.021 25.262 19.663 5.19 62.823a11.991 11.991 0 1 0 17.681.297z" fill="#ffb6b6"/>
  <path d="M604.015 179.355c14.208-2.658 42.378 41.258 42.378 41.258-3.347.071 22.481 26.091 19.73 27.349-7.816 3.574-26.45 6.365-29.339 11.188-1.653 2.759-18.124-16.019-18.124-16.019s-10.294-9.794-23.288-22.657a30.644 30.644 0 0 1-8.895-28.2s3.329-10.26 17.538-12.919z" fill="#e6e6e6"/>
  <path d="M674.818 589.409a1.186 1.186 0 0 1-1.19 1.19h-280.29a1.19 1.19 0 1 1 0-2.38h280.29a1.187 1.187 0 0 1 1.19 1.19z" fill="#ccc"/>
  <path d="M415.162 228.792H74.992a20.068 20.068 0 0 0-20.046 20.046v211.788a20.069 20.069 0 0 0 20.046 20.046h340.17a20.069 20.069 0 0 0 20.046-20.046V248.838a20.068 20.068 0 0 0-20.046-20.046z" fill="#00EAF8"/>
  <g fill="#3f3d56">
    <path d="M415.162 228.792H74.992a20.068 20.068 0 0 0-20.046 20.046v211.788a20.069 20.069 0 0 0 20.046 20.046h340.17a20.069 20.069 0 0 0 20.046-20.046V248.838a20.068 20.068 0 0 0-20.046-20.046zm6.578 152.13a82.406 82.406 0 0 1-81.018 82.084c-34.517.45 19.097.624-22.532.624-95.193 0-194.452-.91-231.487-1.499a18.675 18.675 0 0 1-18.29-18.599V248.854a6.6 6.6 0 0 1 6.577-6.594h340.158a6.6 6.6 0 0 1 6.592 6.576z"/>
    <path d="M373.287 106.838H114.114a11.139 11.139 0 0 0-10.471 7.384l-40.028 112.3A11.117 11.117 0 0 0 74.07 241.37l347.595.617h.015a11.116 11.116 0 0 0 10.218-15.495l-.606.26.606-.26-48.393-112.917a11.103 11.103 0 0 0-10.218-6.737z"/>
    <path d="M432.798 228.93a11.146 11.146 0 0 1-.9 4.38l-48.39 86.92a11.147 11.147 0 0 1-10.22 6.73h-259.17a11.147 11.147 0 0 1-10.48-7.38l-40.02-86.3a11.11 11.11 0 0 1 6.74-14.2 10.937 10.937 0 0 1 3.71-.65l42.46-.08 17.33-.03 228.04-.4 17.34-.03 42.43-.08h.01a11.122 11.122 0 0 1 11.12 11.12zM100.494 387.658c5.139 0 75.714 4.313 75.714 9.452s-70.575 9.159-75.714 9.159a9.306 9.306 0 1 1 0-18.611z"/>
  </g>
  <path d="M357.148 38.52h-218.53a22.116 22.116 0 0 0-22.09 22.09v266.35h256.76a10.977 10.977 0 0 0 5.95-1.73V60.61a22.116 22.116 0 0 0-22.09-22.09z" fill="#e6e6e6"/>
  <path d="M273.738 56.43h-119.76a20.14 20.14 0 0 0-20.12 20.11v250.42h228.04V144.59a88.262 88.262 0 0 0-88.16-88.16z" fill="#fff"/>
  <path d="M323.048 304.72h-150.34a4.9 4.9 0 1 0 0 9.8h150.34a4.9 4.9 0 1 0 0-9.8zm0-19.38h-150.34a4.905 4.905 0 0 0 0 9.81h150.34a4.905 4.905 0 1 0 0-9.81zm-85.17-19.37h-65.17a4.9 4.9 0 1 0 0 9.8h65.17a4.9 4.9 0 1 0 0-9.8zm85.17-40.58h-150.34a4.905 4.905 0 0 0 0 9.81h150.34a4.905 4.905 0 1 0 0-9.81zm0-19.37h-150.34a4.9 4.9 0 1 0 0 9.8h150.34a4.9 4.9 0 1 0 0-9.8zm-85.17-19.38h-65.17a4.905 4.905 0 0 0 0 9.81h65.17a4.905 4.905 0 1 0 0-9.81z" fill="#e4e4e4"/>
  <path d="M323.048 146.06h-150.34a4.905 4.905 0 0 0 0 9.81h150.34a4.905 4.905 0 1 0 0-9.81zm0-19.37h-150.34a4.905 4.905 0 0 0 0 9.81h150.34a4.905 4.905 0 1 0 0-9.81zm-85.17-19.38h-65.17a4.905 4.905 0 0 0 0 9.81h65.17a4.905 4.905 0 1 0 0-9.81z" fill="#00EAF8"/>
  <circle cx="371.045" cy="38.163" fill="#00EAF8" r="38.163"/>
  <path d="M365.839 58.025a4.244 4.244 0 0 1-3.396-1.699L352.03 42.444a4.245 4.245 0 1 1 6.793-5.093l6.811 9.08 17.495-26.24a4.245 4.245 0 1 1 7.064 4.71L369.37 56.133a4.247 4.247 0 0 1-3.414 1.89h-.118z" fill="#fff"/>
</svg>
