<svg xmlns="http://www.w3.org/2000/svg" viewBox="0 0 302 347">
  <path fill="#7ee787" fill-rule="nonzero" d="M232.565 0c6.437 0 11.652 5.248 11.652 11.727v23.455c0 6.48-5.215 11.727-11.652 11.727H220.7v50.973c48.77 26.244 82.543 78.21 81.265 136.287-.828 37.54-15.354 71.695-38.76 97.686-8.776 9.74-21.43 15.145-34.54 15.145H73.278c-12.908 0-25.445-5.18-34.12-14.746C14.83 305.443 0 269.85 0 230.776c0-58.199 33.111-108.342 81.308-133.57V46.909H69.435c-6.338 0-11.49-5.088-11.648-11.429l-.004-.298V11.727C57.783 5.248 62.998 0 69.435 0h163.13Zm-58.327 46.909h-46.469v78.438c-14.671 7.685-72.835 28.14-80.472 93.386 47.804-23.914 92.662-22.54 131.98-2.87 27.435 13.73 50.435 14.916 67.217 14.944h1.188c2.747-.003 5.32-.03 7.712-.03-.196-66.713-54.687-90.866-81.155-105.11l-.001-78.758Z"/>
</svg>
